<?xml version="1.0" encoding="utf-8"?>
<!-- Generator: Adobe Illustrator 15.1.0, SVG Export Plug-In . SVG Version: 6.00 Build 0)  -->
<!DOCTYPE svg PUBLIC "-//W3C//DTD SVG 1.1//EN" "http://www.w3.org/Graphics/SVG/1.1/DTD/svg11.dtd">
<svg version="1.1" id="Ebene_1" xmlns="http://www.w3.org/2000/svg" xmlns:xlink="http://www.w3.org/1999/xlink" x="0px" y="0px"
	 width="32.955px" height="29.786px" viewBox="-17.955 -6.865 32.955 29.786" enable-background="new -17.955 -6.865 32.955 29.786"
	 xml:space="preserve">
<path fill="#EB0000" d="M12.129,7.202L-0.494-5.418c-0.332-0.333-0.332-0.87,0-1.197c0.331-0.333,0.869-0.333,1.198,0L14.748,7.432
	C14.918,7.594,15,7.813,15,8.027c0,0.216-0.082,0.435-0.252,0.601L0.705,22.674c-0.33,0.33-0.867,0.33-1.198,0
	c-0.332-0.334-0.332-0.872,0-1.201l12.627-12.62h-29.377c-0.457,0-0.826-0.368-0.826-0.825c0-0.456,0.369-0.825,0.826-0.825H12.129z
	"/>
</svg>
