<?xml version="1.0" encoding="utf-8"?>
<!-- Generator: Adobe Illustrator 24.3.0, SVG Export Plug-In . SVG Version: 6.00 Build 0)  -->
<svg version="1.1" id="chat" xmlns="http://www.w3.org/2000/svg" xmlns:xlink="http://www.w3.org/1999/xlink" x="0px" y="0px"
	 viewBox="0 0 16 16" style="enable-background:new 0 0 16 16;" xml:space="preserve">
<style type="text/css">
	.st0{fill:#FFFFFF;}
</style>
<path class="st0" d="M12.9,13.3c-0.1,0-0.1,0-0.2,0c-0.3,0-0.6-0.1-1-0.1c-0.3-0.1-0.5-0.2-0.8-0.3c-0.2-0.1-0.3-0.2-0.5-0.3
	c-0.5,0-1.1,0-1.6-0.2c-0.5-0.1-1-0.3-1.4-0.6c-0.4-0.3-0.7-0.6-1-1C6.2,10.3,6,9.9,6,9.4s0.1-1,0.3-1.4c0.2-0.4,0.5-0.8,0.9-1.2
	C7.6,6.5,8,6.2,8.5,6C9,5.8,9.6,5.7,10.2,5.7c0.6,0,1.1,0,1.7,0.2c0,0,0,0,0,0L12,5.9c0,0,0.1,0,0.1,0c0.5,0.2,1.1,0.5,1.5,0.9
	c0,0,0,0,0,0c0.2,0.2,0.4,0.5,0.6,0.7c0.4,0.7,0.5,1.5,0.3,2.3c-0.1,0.3-0.2,0.6-0.4,0.8c-0.2,0.3-0.4,0.5-0.6,0.7
	c-0.2,0.2-0.4,0.3-0.6,0.4c0.1,0.3,0.6,0.7,0.9,0.8c0.1,0.1,0.2,0.2,0.2,0.3c0,0.1-0.1,0.2-0.3,0.3C13.5,13.3,13.2,13.3,12.9,13.3z
	 M10.5,11.9L10.5,11.9c0.1,0,0.2,0,0.2,0.1c0.2,0.1,0.3,0.2,0.5,0.3c0.2,0.1,0.4,0.2,0.7,0.3c0.3,0.1,0.5,0.1,0.8,0.1
	c0.1,0,0.1,0,0.2,0c-0.3-0.3-0.6-0.6-0.6-1c0-0.1,0.1-0.2,0.2-0.3c0.2-0.1,0.5-0.3,0.7-0.5c0.2-0.2,0.4-0.4,0.5-0.6
	c0.1-0.2,0.2-0.4,0.3-0.7C14.1,9,14,8.4,13.7,7.9c-0.1-0.2-0.3-0.4-0.5-0.6c-0.4-0.3-0.9-0.6-1.4-0.8c0,0,0,0,0,0l-0.1,0
	c-0.5-0.1-1-0.2-1.5-0.1c-0.5,0-1,0.1-1.4,0.3C8.3,6.8,8,7.1,7.6,7.4C7.3,7.6,7.1,7.9,6.9,8.3C6.7,8.6,6.7,9,6.7,9.4
	c0,0.4,0.1,0.7,0.3,1c0.2,0.3,0.5,0.6,0.8,0.8c0.4,0.3,0.8,0.4,1.2,0.5C9.5,11.9,10,12,10.5,11.9C10.5,11.9,10.5,11.9,10.5,11.9z"/>
<path class="st0" d="M3.3,12c-0.2,0-0.3,0-0.5,0c-0.1,0-0.3-0.1-0.3-0.3c0-0.1,0-0.3,0.2-0.4c0,0,0.8-0.5,1.3-1.3
	C3.6,9.9,3.2,9.7,3,9.5C2.7,9.3,2.4,9,2.1,8.7c-0.2-0.3-0.4-0.6-0.6-1C1.4,7.4,1.4,7,1.3,6.7c0-0.6,0.1-1.2,0.4-1.7
	c0.3-0.6,0.6-1,1.1-1.4c0.5-0.4,1.1-0.8,1.7-1C5.2,2.2,5.8,2.1,6.6,2C7.3,2,8,2,8.7,2.2C9.3,2.4,9.9,2.6,10.4,3
	c0.5,0.3,0.9,0.8,1.3,1.3c0.1,0.1,0.6,0.9,0.4,1.8c0,0,0,0.2,0,0.2l-0.7-0.1c0,0,0-0.1,0-0.2c0.1-0.6-0.3-1.3-0.3-1.3c0,0,0,0,0,0
	c-0.3-0.4-0.6-0.8-1.1-1.1C9.6,3.2,9.1,3,8.5,2.9C7.9,2.7,7.2,2.6,6.6,2.7C6,2.7,5.3,2.9,4.7,3.1C4.2,3.3,3.7,3.6,3.2,4
	c-0.4,0.3-0.7,0.8-1,1.2C2.1,5.7,2,6.1,2,6.6c0,0.3,0.1,0.6,0.2,0.9c0.1,0.3,0.3,0.6,0.5,0.8C2.9,8.6,3.1,8.8,3.4,9
	c0.3,0.2,0.9,0.5,1.2,0.6l0,0C4.7,9.7,4.8,9.9,4.7,10c-0.2,0.5-0.6,0.9-0.9,1.3c0.1,0,0.2,0,0.3,0c0.3,0,0.6-0.1,0.9-0.2
	c0,0,0.4-0.1,1.4-0.7l0.1-0.1c0.2-0.1,0.4,0,0.5,0.1c0.1,0.2,0,0.4-0.1,0.5l-0.1,0.1c-1.1,0.6-1.4,0.7-1.5,0.7
	c-0.3,0.1-0.6,0.2-1,0.3C4,12,3.7,12,3.3,12z"/>
</svg>
