<?xml version="1.0" encoding="utf-8"?>
<!-- Generator: Adobe Illustrator 15.1.0, SVG Export Plug-In . SVG Version: 6.00 Build 0)  -->
<!DOCTYPE svg PUBLIC "-//W3C//DTD SVG 1.1//EN" "http://www.w3.org/Graphics/SVG/1.1/DTD/svg11.dtd">
<svg version="1.1" id="Ebene_4" xmlns="http://www.w3.org/2000/svg" xmlns:xlink="http://www.w3.org/1999/xlink" x="0px" y="0px"
	 width="16px" height="16px" viewBox="0 0 16 16" enable-background="new 0 0 16 16" xml:space="preserve">
<g id="_x38_f64ffa8-104c-4cc3-94f2-52c0f839e7d2">
	<path fill="#FFFFFF" d="M14.407,13.677H1.599c-0.882,0-1.6-0.72-1.6-1.601V4.071c0-0.882,0.718-1.6,1.6-1.6h12.81
		c0.88,0,1.601,0.718,1.601,1.6v8.006C16.008,12.957,15.288,13.677,14.407,13.677z M1.599,3.27c-0.441,0-0.801,0.359-0.801,0.801
		v8.006c0,0.441,0.359,0.799,0.801,0.799h12.81c0.438,0,0.799-0.357,0.799-0.8V4.071c0-0.441-0.36-0.801-0.8-0.801H1.599z"/>
	<g id="cec53035-7081-4508-b5b0-bb68166742a8">
		<path fill="#FFFFFF" d="M7.917,10.505c-0.546,0-1.062-0.206-1.457-0.585C6.44,9.899,6.422,9.88,6.403,9.86L0.43,3.734l0.617-0.602
			l5.976,6.129c0.013,0.015,0.025,0.027,0.036,0.035c0.239,0.23,0.551,0.35,0.884,0.348c0.33-0.007,0.64-0.143,0.869-0.38
			l6.006-6.16l0.617,0.602L9.431,9.863c-0.386,0.404-0.909,0.632-1.472,0.642C7.945,10.505,7.93,10.505,7.917,10.505z"/>
	</g>
</g>
</svg>
