<?xml version="1.0" encoding="utf-8"?>
<!-- Generator: Adobe Illustrator 24.3.0, SVG Export Plug-In . SVG Version: 6.00 Build 0)  -->
<svg version="1.1" id="Ebene_1" xmlns="http://www.w3.org/2000/svg" xmlns:xlink="http://www.w3.org/1999/xlink" x="0px" y="0px"
	 viewBox="0 0 24 24" style="enable-background:new 0 0 24 24;" xml:space="preserve">
<style type="text/css">
	.st0{fill:#FFFFFF;}
</style>
<g id="c2595f44-f93f-43ec-b759-a0b973203da5">
	<path class="st0" d="M12,19c-2.8,0-5.4-1.1-7.5-3.2c-1.7-1.7-2.5-3.4-2.5-3.4c0,0,0,0,0,0c-0.1-0.3-0.1-0.6,0-0.8c0,0,0,0,0-0.1
		C2.4,10.8,5.5,5,12,5c2.8,0,5.4,1.1,7.5,3.2c1.7,1.7,2.5,3.4,2.5,3.4c0,0,0,0,0,0c0.1,0.3,0.1,0.6,0,0.8c0,0,0,0,0,0.1
		C21.6,13.2,18.5,19,12,19z M3,12c0.1,0.3,2.9,6,9,6c5.8,0,8.6-5.2,9-5.9c0,0,0-0.1,0-0.1c-0.1-0.3-2.9-6-9-6c-5.8,0-8.6,5.2-9,5.9
		C3,12,3,12,3,12z"/>
	<path class="st0" d="M12,16L12,16c-2.2,0-4-1.8-4-4c0-2.2,1.8-4,4-4c2.2,0,4,1.8,4,4C16,14.2,14.2,16,12,16C12,16,12,16,12,16z
		 M12,9c-1.7,0-3,1.3-3,3s1.3,3,3,3h0c1.6,0,3-1.4,3-3C15,10.3,13.7,9,12,9z"/>
</g>
</svg>
