<?xml version="1.0" encoding="utf-8"?>
<!-- Generator: Adobe Illustrator 24.3.0, SVG Export Plug-In . SVG Version: 6.00 Build 0)  -->
<svg version="1.1" id="Ebene_1" xmlns="http://www.w3.org/2000/svg" xmlns:xlink="http://www.w3.org/1999/xlink" x="0px" y="0px"
	 viewBox="0 0 28 28" style="enable-background:new 0 0 28 28;" xml:space="preserve">
<style type="text/css">
	.st0{fill:#FFFFFF;}
	.st1{fill:#FFFFFF;stroke:#1F1F1D;stroke-width:3;stroke-miterlimit:10;}
</style>
<g id="twitter_1_">
	<g id="help_1_">
		<path class="st0" d="M14,3.6c5.7,0,10.4,4.7,10.4,10.4c0,5.7-4.7,10.4-10.4,10.4C8.3,24.4,3.6,19.7,3.6,14C3.6,8.3,8.3,3.6,14,3.6
			 M14,2C7.4,2,2,7.4,2,14c0,6.6,5.4,12,12,12c6.6,0,12-5.4,12-12C26,7.4,20.6,2,14,2L14,2z"/>
		<path class="st1" d="M14,23.8"/>
		<path class="st0" d="M14,18.5c-0.5,0-0.9,0.4-0.9,0.9c0,0.5,0.4,0.9,0.9,0.9c0.5,0,0.9-0.4,0.9-0.9C14.9,18.9,14.5,18.5,14,18.5
			L14,18.5z"/>
		<path class="st0" d="M14,7.7c2,0,3.6,1.6,3.6,3.6c0,1.6-1.1,3-2.6,3.5l-0.3,0.1v0.3v1.2c0,0.4-0.3,0.7-0.7,0.7
			c-0.4,0-0.7-0.3-0.7-0.7v-2.2c0-0.4,0.3-0.7,0.7-0.7c1.2,0,2.2-1,2.2-2.2s-1-2.2-2.2-2.2c-1.2,0-2.2,1-2.2,2.2
			c0,0.4-0.3,0.7-0.7,0.7c-0.4,0-0.7-0.3-0.7-0.7C10.4,9.3,12,7.7,14,7.7"/>
		<path class="st0" d="M14,6.3"/>
	</g>
</g>
</svg>
