<?xml version="1.0" encoding="utf-8"?>
<!-- Generator: Adobe Illustrator 15.1.0, SVG Export Plug-In . SVG Version: 6.00 Build 0)  -->
<!DOCTYPE svg PUBLIC "-//W3C//DTD SVG 1.1//EN" "http://www.w3.org/Graphics/SVG/1.1/DTD/svg11.dtd">
<svg version="1.1" id="Ebene_1" xmlns="http://www.w3.org/2000/svg" xmlns:xlink="http://www.w3.org/1999/xlink" x="0px" y="0px"
	 width="60px" height="60px" viewBox="0 0 60 60" enable-background="new 0 0 60 60" xml:space="preserve">
<path fill="#FFFFFF" d="M60,30c0,16.568-13.431,30-30,30C13.432,60,0,46.568,0,30S13.432,0,30,0C46.569,0,60,13.432,60,30"/>
<path fill="#E31013" d="M30.238,46.729c-8.243,0.027-16.818-7.008-16.855-18.304c-0.025-7.47,4.005-14.661,9.157-18.927
	c5.025-4.162,11.909-6.832,18.153-6.852c0.803-0.003,1.644,0.064,2.158,0.238c-5.46,1.132-9.804,6.213-9.785,11.976
	c0.001,0.19,0.018,0.395,0.038,0.489c9.135,2.225,13.28,7.737,13.307,15.363C46.435,38.339,40.413,46.694,30.238,46.729"/>
</svg>
