<?xml version="1.0" encoding="utf-8"?>
<!-- Generator: Adobe Illustrator 24.3.0, SVG Export Plug-In . SVG Version: 6.00 Build 0)  -->
<svg version="1.1" id="Ebene_1" xmlns="http://www.w3.org/2000/svg" xmlns:xlink="http://www.w3.org/1999/xlink" x="0px" y="0px"
	 viewBox="0 0 16 16" style="enable-background:new 0 0 16 16;" xml:space="preserve">
<style type="text/css">
	.st0{fill:#FFFFFF;}
</style>
<path class="st0" d="M8,14.7c-0.1,0-0.1,0-0.2,0c-0.6-0.3-1.6-1-2.3-1.5c-0.8-0.6-1.5-1.2-1.9-1.8c-0.5-0.6-1-1.3-1-2V2.8
	c0-0.2,0.1-0.3,0.3-0.3l5-1.1c0,0,0.1,0,0.1,0l5,1.1c0.2,0,0.3,0.2,0.3,0.3v6.4c0,0.7-0.5,1.4-1,2c-0.5,0.6-1.1,1.2-1.9,1.8
	c-0.7,0.5-1.7,1.2-2.3,1.5C8.1,14.7,8.1,14.7,8,14.7z M3.3,3.1v6.2c0,0.5,0.4,1.1,0.8,1.6c0.4,0.5,1,1.1,1.8,1.7
	C6.8,13.2,7.5,13.7,8,14c0.5-0.3,1.2-0.7,2.1-1.4c0.8-0.6,1.4-1.1,1.8-1.7c0.5-0.7,0.8-1.2,0.8-1.6V3.1L8,2L3.3,3.1z"/>
<path class="st0" d="M7,11.3C7,11.3,7,11.3,7,11.3c-0.3,0-0.5-0.1-0.7-0.3c-0.2-0.2-0.2-0.4-0.2-0.6c0,0,0,0,0,0l0.7-3.1
	C6.7,7.1,6.6,7,6.5,6.8C5.9,5.9,6.2,4.8,7,4.3C7.3,4.1,7.7,4,8,4c0.6,0,1.2,0.3,1.5,0.9C10,5.6,9.9,6.7,9.2,7.2l0.3,1.6l0.4,1.5
	c0,0,0,0,0,0.1c0,0,0,0.1,0,0.1c0,0.5-0.4,0.8-0.9,0.8l0,0c0,0,0,0,0,0L7,11.3C7.1,11.3,7.1,11.3,7,11.3z M6.8,10.5c0,0,0,0.1,0,0.1
	c0,0,0.1,0.1,0.1,0.1c0,0,0,0,0,0l0,0c0,0,0,0,0,0h1.9c0,0,0,0,0,0h0l0,0c0.1,0,0.2-0.1,0.2-0.2c0,0,0,0,0,0L8.8,9c0,0,0,0,0,0
	L8.5,7.1c0-0.1,0-0.3,0.2-0.3C9.2,6.5,9.3,5.7,9,5.2C8.8,4.9,8.4,4.7,8,4.7c-0.2,0-0.4,0.1-0.6,0.2C6.8,5.2,6.7,5.9,7,6.4
	c0.1,0.1,0.2,0.3,0.4,0.4C7.5,6.9,7.6,7,7.5,7.2L6.8,10.5z"/>
</svg>
