<?xml version="1.0" encoding="utf-8"?>
<!-- Generator: Adobe Illustrator 24.3.0, SVG Export Plug-In . SVG Version: 6.00 Build 0)  -->
<svg version="1.1" id="Ebene_4" xmlns="http://www.w3.org/2000/svg" xmlns:xlink="http://www.w3.org/1999/xlink" x="0px" y="0px"
	 viewBox="0 0 16 16" style="enable-background:new 0 0 16 16;" xml:space="preserve">
<style type="text/css">
	.st0{fill:#FFFFFF;}
</style>
<path class="st0" d="M8.2,10.1c-0.2,0-0.5,0-0.7-0.2C7.3,9.8,7.1,9.6,7,9.1C6.8,7.7,7.8,7.5,7.9,7.4C8.2,7.4,8.7,7.4,9,7.9
	C9,8,9,8.2,8.8,8.3c-0.2,0.1-0.4,0-0.4-0.2c0-0.1-0.2-0.1-0.3-0.1C7.9,8.1,7.5,8.3,7.6,9c0,0.2,0.1,0.3,0.2,0.3
	C8,9.4,8.2,9.4,8.4,9.4V9.2H8.3C8.1,9.2,7.9,9,7.9,8.8c0-0.2,0.1-0.3,0.3-0.3h0.4C8.9,8.5,9,8.7,9,8.8v0.8C9,9.8,8.9,9.9,8.8,10
	C8.8,10,8.5,10.1,8.2,10.1z"/>
<path class="st0" d="M11.3,14.7H4.7c-0.7,0-1.3-0.6-1.3-1.3V2.7c0-0.7,0.6-1.3,1.3-1.3h5c0.1,0,0.2,0,0.2,0.1l2.7,2.7
	c0.1,0.1,0.1,0.1,0.1,0.2v9C12.7,14.1,12.1,14.7,11.3,14.7z M4.7,2C4.3,2,4,2.3,4,2.7v10.7C4,13.7,4.3,14,4.7,14h6.7
	c0.4,0,0.7-0.3,0.7-0.7V4.5L9.5,2H4.7z"/>
<path class="st0" d="M12.3,4.7H9.7c-0.2,0-0.3-0.1-0.3-0.3V1.7c0-0.2,0.1-0.3,0.3-0.3c0.2,0,0.3,0.1,0.3,0.3V4h2.3
	c0.2,0,0.3,0.1,0.3,0.3S12.5,4.7,12.3,4.7z"/>
<path class="st0" d="M5,10.1c0,0-0.1,0-0.1,0C4.7,10,4.6,9.8,4.7,9.6l0.7-2c0-0.1,0.2-0.2,0.3-0.2C5.9,7.4,6,7.5,6,7.6l0.8,2
	c0.1,0.2,0,0.4-0.2,0.4s-0.4,0-0.4-0.2L5.7,8.7L5.3,9.9C5.3,10,5.1,10.1,5,10.1z"/>
<path class="st0" d="M6.4,9.7H5.1c-0.2,0-0.3-0.1-0.3-0.3c0-0.2,0.1-0.3,0.3-0.3h1.2c0.2,0,0.3,0.1,0.3,0.3C6.7,9.6,6.5,9.7,6.4,9.7
	z"/>
<path class="st0" d="M9.8,10.1c-0.2,0-0.3-0.1-0.3-0.3V7.8c0-0.2,0.1-0.3,0.3-0.3c0.2,0,0.3,0.1,0.3,0.3v1.9
	C10.2,9.9,10,10.1,9.8,10.1z"/>
<path class="st0" d="M9.8,9.1c-0.2,0-0.3-0.1-0.3-0.3c0-0.2,0.1-0.3,0.3-0.3h0.6c0.1,0,0.2-0.1,0.2-0.2c0-0.1-0.1-0.2-0.2-0.2H9.8
	c-0.2,0-0.3-0.1-0.3-0.3s0.1-0.3,0.3-0.3h0.6c0.5,0,0.8,0.4,0.8,0.8c0,0.5-0.4,0.8-0.8,0.8H9.8L9.8,9.1z"/>
<path class="st0" d="M9.8,10.1c-0.2,0-0.3-0.1-0.3-0.3c0-0.2,0.1-0.3,0.3-0.3l0.7,0c0.1,0,0.2-0.1,0.2-0.2s-0.1-0.2-0.2-0.2H9.8
	c-0.2,0-0.3-0.1-0.3-0.3s0.1-0.3,0.3-0.3h0.7c0.5,0,0.8,0.4,0.8,0.8c0,0.5-0.4,0.8-0.8,0.8H9.8L9.8,10.1z"/>
</svg>
