<?xml version="1.0" encoding="utf-8"?>
<!-- Generator: Adobe Illustrator 24.3.0, SVG Export Plug-In . SVG Version: 6.00 Build 0)  -->
<svg version="1.1" id="Ebene_4" xmlns="http://www.w3.org/2000/svg" xmlns:xlink="http://www.w3.org/1999/xlink" x="0px" y="0px"
	 viewBox="0 0 16 16" style="enable-background:new 0 0 16 16;" xml:space="preserve">
<style type="text/css">
	.st0{fill:#FFFFFF;}
</style>
<path class="st0" d="M10.3,7.3H5.7C5.5,7.3,5.3,7.2,5.3,7s0.2-0.3,0.3-0.3h4.7c0.2,0,0.3,0.2,0.3,0.3S10.5,7.3,10.3,7.3z"/>
<path class="st0" d="M10.3,9.3H5.7C5.5,9.3,5.3,9.2,5.3,9s0.2-0.3,0.3-0.3h4.7c0.2,0,0.3,0.1,0.3,0.3S10.5,9.3,10.3,9.3z"/>
<path class="st0" d="M10.3,11.3H5.7c-0.2,0-0.3-0.1-0.3-0.3s0.2-0.3,0.3-0.3h4.7c0.2,0,0.3,0.1,0.3,0.3S10.5,11.3,10.3,11.3z"/>
<path class="st0" d="M12.6,4.1L9.9,1.4C9.8,1.4,9.8,1.3,9.7,1.3h-5c-0.7,0-1.3,0.6-1.3,1.3v10.7c0,0.7,0.6,1.3,1.3,1.3h6.7
	c0.7,0,1.3-0.6,1.3-1.3v-9C12.7,4.2,12.6,4.2,12.6,4.1z M10,2.5L11.5,4H10V2.5z M11.3,14H4.7C4.3,14,4,13.7,4,13.3V2.7
	C4,2.3,4.3,2,4.7,2h4.7v2.3c0,0.2,0.1,0.3,0.3,0.3H12v8.7C12,13.7,11.7,14,11.3,14z"/>
</svg>
