<?xml version="1.0" encoding="utf-8"?>
<!-- Generator: Adobe Illustrator 24.3.0, SVG Export Plug-In . SVG Version: 6.00 Build 0)  -->
<svg version="1.1" id="Ebene_1" xmlns="http://www.w3.org/2000/svg" xmlns:xlink="http://www.w3.org/1999/xlink" x="0px" y="0px"
	 viewBox="0 0 16 16" style="enable-background:new 0 0 16 16;" xml:space="preserve">
<style type="text/css">
	.st0{fill:#FFFFFF;}
</style>
<path class="st0" d="M8,12c-0.2,0-0.3-0.1-0.3-0.3V8H7.3C7.1,8,6.9,7.8,6.9,7.7s0.1-0.3,0.3-0.3H8c0.2,0,0.3,0.1,0.3,0.3v4
	C8.3,11.8,8.2,12,8,12z"/>
<path class="st0" d="M8.7,12H7.3c-0.2,0-0.3-0.1-0.3-0.3c0-0.2,0.1-0.3,0.3-0.3h1.5c0.2,0,0.3,0.1,0.3,0.3C9.1,11.8,8.9,12,8.7,12z"
	/>
<path class="st0" d="M11.3,14.7H4.7c-0.7,0-1.3-0.6-1.3-1.3V2.7c0-0.7,0.6-1.3,1.3-1.3h5c0.1,0,0.2,0,0.2,0.1l2.7,2.7
	c0.1,0.1,0.1,0.1,0.1,0.2v9C12.7,14.1,12.1,14.7,11.3,14.7z M4.7,2C4.3,2,4,2.3,4,2.7v10.7C4,13.7,4.3,14,4.7,14h6.7
	c0.4,0,0.7-0.3,0.7-0.7V4.5L9.5,2H4.7z"/>
<path class="st0" d="M12.3,4.7H9.7c-0.2,0-0.3-0.1-0.3-0.3V1.8c0-0.2,0.1-0.3,0.3-0.3c0.2,0,0.3,0.1,0.3,0.3V4h2.3
	c0.2,0,0.3,0.1,0.3,0.3S12.4,4.7,12.3,4.7z"/>
<path class="st0" d="M7.8,6.2C7.5,6.2,7.3,6,7.3,5.7c0-0.3,0.2-0.5,0.5-0.5s0.5,0.2,0.5,0.5C8.3,6,8.1,6.2,7.8,6.2z M7.8,5.5
	c-0.1,0-0.1,0.1-0.1,0.1s0.1,0.1,0.1,0.1s0.1-0.1,0.1-0.1S7.9,5.5,7.8,5.5z"/>
<path class="st0" d="M7.8,6.1c-0.2,0-0.4-0.2-0.4-0.4s0.2-0.4,0.4-0.4s0.4,0.2,0.4,0.4S8,6.1,7.8,6.1z M7.8,5.4
	c-0.1,0-0.2,0.1-0.2,0.2s0.1,0.2,0.2,0.2S8,5.8,8,5.7S7.9,5.4,7.8,5.4z"/>
</svg>
