<?xml version="1.0" encoding="utf-8"?>
<!-- Generator: Adobe Illustrator 24.3.0, SVG Export Plug-In . SVG Version: 6.00 Build 0)  -->
<svg version="1.1" id="Ebene_4" xmlns="http://www.w3.org/2000/svg" xmlns:xlink="http://www.w3.org/1999/xlink" x="0px" y="0px"
	 viewBox="0 0 16 16" style="enable-background:new 0 0 16 16;" xml:space="preserve">
<style type="text/css">
	.st0{fill:#FFFFFF;}
</style>
<path class="st0" d="M8,14.7c-0.1,0-0.2,0-0.3-0.1c-1.1-0.5-6.4-3.2-6.4-11.5c0-0.3,0.1-0.7,0.8-0.7c0.2,0,0.4,0,0.6,0.1
	c0.3,0,0.7,0.1,1.2,0.1c1.2,0,2.4-0.4,3.7-1.1c0.3-0.2,0.7-0.2,0.9,0c1.2,0.8,2.4,1.1,3.7,1.1c0.5,0,0.9,0,1.2-0.1
	c0.2,0,0.4-0.1,0.6-0.1c0.2,0,0.4,0,0.6,0.2c0.1,0.1,0.2,0.3,0.2,0.5c0,8.2-5.3,11-6.4,11.4C8.2,14.7,8.1,14.7,8,14.7z M2,3.1
	C2,3.1,2,3.1,2,3.1C2,11,7,13.6,8,14c0,0,0,0,0.1,0c1-0.4,6-3,6-10.8c0,0,0,0,0-0.1c0,0-0.1,0-0.1,0c-0.1,0-0.3,0-0.5,0
	c-0.3,0-0.8,0.1-1.3,0.1c-1.4,0-2.7-0.4-4-1.2C8,2,8,2,7.9,2c-1.3,0.8-2.6,1.2-4,1.2c-0.5,0-0.9-0.1-1.3-0.1c-0.2,0-0.4,0-0.5,0
	C2,3.1,2,3.1,2,3.1z"/>
</svg>
